<svg xmlns="http://www.w3.org/2000/svg" viewBox="0 0 447.05 148.15"><defs><style>.cls-1{fill:#292321;}</style></defs><g id="Layer_2" data-name="Layer 2"><g id="Layer_1-2" data-name="Layer 1"><path class="cls-1" d="M429,12.37a2.35,2.35,0,0,1-1.35,3.25,12.24,12.24,0,0,1-2.17-.11c-1.44,0-2.6,1.11-3.61,2.13a572.14,572.14,0,0,0-81,103.52,10.3,10.3,0,0,1-3.1,3.66c-1.27.79-3.71,1.07-4.4-.54-1-2.24,1.32-6.57,2-8.76,2.41-8.13,5.5-15.91,8.18-24s5.19-16.19,7.33-24.42c1.69-6.49,3.16-13.15,2.64-19.82-.2-2.53-1-5.43-3.34-6.37a6.35,6.35,0,0,0-4.93.56c-6.63,3-10.77,9.64-14.47,15.92-3.54,6-7.14,12.49-6.92,19.48,0,1.38-.63,2.61-2.16,2.23a3.85,3.85,0,0,1-2.49-3.48,11.6,11.6,0,0,1,.9-4.8c3.93-11.38,9.11-23.12,19-30,4.11-2.85,9.72-4.67,14-2.13A11.07,11.07,0,0,1,358,46.54a28.87,28.87,0,0,1-.38,9.4c-3.2,19.74-10.11,38.65-17,57.42A567.32,567.32,0,0,1,414.76,19a75.39,75.39,0,0,1,6.5-6.14A9.31,9.31,0,0,1,425,10.78,3.74,3.74,0,0,1,429,12.37ZM323.46,75.53c0,.08,0,0,.05-.08S323.54,75.34,323.46,75.53ZM351.15,41c-.35-.16-.46-.22-.32-.19A1.29,1.29,0,0,1,351.15,41Zm73.08-25.52c.12-.08.11-.08-.06,0S424.1,15.53,424.23,15.45Z"></path><path class="cls-1" d="M382.9,77.94a43.41,43.41,0,0,0-10.39,13.78,18.68,18.68,0,0,0-1.32,4.22c.11.44.57.4.91.29l1.51-.4a18.89,18.89,0,0,0,3.06-1l3.05-1.28,2.54-1.25a48.69,48.69,0,0,0,6-3.3c3.41-2.11,6.79-4.24,10.14-6.44,2.49-1.62,5-3.11,7.64-4.54a1.42,1.42,0,0,1,.94.06,5.83,5.83,0,0,1,1.08.45,1.35,1.35,0,0,1,.7.69.93.93,0,0,1-.2,1,26.65,26.65,0,0,1-2.26,1.59c-.6.42-1.22.82-1.9,1.25-1.53,1-2.59,1.7-3.18,2a5.7,5.7,0,0,0-1.14.75c-2.12,1.44-4.27,2.85-6.48,4.2s-4.7,2.74-7.49,4.18c-.76.43-1.65.88-2.66,1.33s-2,.88-2.81,1.23-1.76.74-3,1.19A22.2,22.2,0,0,1,373.81,99a9.48,9.48,0,0,1-3.68,0,3.72,3.72,0,0,1-2.73-5,17.46,17.46,0,0,1,.69-2.18,17.28,17.28,0,0,1,1.08-2.15c1.47-2.47,2.77-5,4.48-7.33a36.94,36.94,0,0,1,5.58-6c.91-.79,2.12-2.09,3.46-1.84a1.7,1.7,0,0,1,1.38,1.32C384.25,76.81,383.55,77.32,382.9,77.94Zm3.49-4.69a2.42,2.42,0,0,1-1-.44,1.45,1.45,0,0,1-.6-1c-.15-1,1.42-2,2.06-2.56,1.1-1,2.93-3,4.5-1.67.38.32,1.14.78.58,1.88a18.52,18.52,0,0,1-3.52,3.33A3.44,3.44,0,0,1,386.39,73.25Z"></path><path class="cls-1" d="M410.44,77.8a15.52,15.52,0,0,0-2.13,4.53c1.63-1,3-2.68,4.55-3.82a19,19,0,0,1,5.45-2.74,2.38,2.38,0,0,1,1.67.13c2.06.81,1.23,3.41.6,5-1.64,4.06-5.17,8.11-5.68,12.58a2.75,2.75,0,0,0,.12,1.88c.34-.07.63-.15.89-.23a6.26,6.26,0,0,0,.89-.4l2.41-1.25,5.58-3.3,5.79-3.76c1.9-1.22,3.83-2.55,5.77-4q2.47-1.86,5-3.66c.78-.55,1.56-1.16,2.38-1.67a2.39,2.39,0,0,1,2.26,0c.58.3,1.53,1.1.78,1.75-1.44,1.25-2.9,2.45-4.38,3.54s-3,2.26-4.64,3.43q-5.46,3.83-11.93,7.74L423.21,95a24.49,24.49,0,0,1-2.61,1.33A14.19,14.19,0,0,1,416,98,4.23,4.23,0,0,1,411.46,96a4.39,4.39,0,0,1-.57-3.16,16.57,16.57,0,0,1,1-3.2,16.28,16.28,0,0,1,1.65-3.35c.68-1.06,1.34-2.18,2-3.35.27-.53.53-1,.84-1.54a6.82,6.82,0,0,0,.69-1.79,23,23,0,0,0-4.7,3.44c-1.45,1.35-2.79,2.71-4.07,4.07-1.69,1.86-3.3,3.77-4.81,5.77A76.47,76.47,0,0,1,398.25,99c-.73,1.23-4,0-3.43-1.27A70.71,70.71,0,0,1,399,89.63c1.6-2.6,3.33-5.13,4.87-7.76,1.29-2.2,2.53-4.42,3.91-6.55A2.79,2.79,0,0,1,410.2,74a2.56,2.56,0,0,1,1.33.26C412.5,74.85,411.52,76.28,410.44,77.8Z"></path><path class="cls-1" d="M18.4,43.47c-1.5,0-3.06,0-4.69.06s-3.27.07-4.9.16-3.21.2-4.73.31-2.87.25-4.08.43a10.29,10.29,0,0,0,.43-2.76A11.66,11.66,0,0,0,0,39l11.08.31c3.62.09,7.32.12,11.1.12s7.47,0,11.08-.12L44.36,39a12,12,0,0,0-.44,2.75,10.17,10.17,0,0,0,.44,2.67c-1.21-.18-2.57-.32-4.09-.43s-3.09-.22-4.73-.31-3.26-.14-4.9-.16-3.19-.06-4.68-.06q-.26,8.87-.26,17.8V76.05q0,5.67.21,11.19c.15,3.67.31,8.81.48,12.35-1.32-.1-2.73-.16-4.21-.16s-2.9.06-4.22.16c.17-3.54.34-8.68.48-12.35s.22-7.41.22-11.19V61.27Q18.66,52.33,18.4,43.47Z"></path><path class="cls-1" d="M100.68,81a26.06,26.06,0,0,1-5,8.66,22.5,22.5,0,0,1-7.56,5,27.47,27.47,0,0,1-18.81,0,20.86,20.86,0,0,1-7.56-5,21.1,21.1,0,0,1-5-8.66A35.67,35.67,0,0,1,55,68.59a34.52,34.52,0,0,1,1.84-12.17,21.07,21.07,0,0,1,5-8.67,20.86,20.86,0,0,1,7.56-5,27.47,27.47,0,0,1,18.81,0,22.5,22.5,0,0,1,7.56,5,26,26,0,0,1,5,8.67,34,34,0,0,1,1.47,6.82h8.3a30.45,30.45,0,0,0-1.84-7.56A30.44,30.44,0,0,0,102,45.91,28.54,28.54,0,0,0,91.64,40a36.37,36.37,0,0,0-12.91-2,37.42,37.42,0,0,0-13.09,2,27.72,27.72,0,0,0-10.14,5.9,30.44,30.44,0,0,0-6.64,9.77,31.64,31.64,0,0,0-2.4,12.91,32.49,32.49,0,0,0,2.4,13.09,27.73,27.73,0,0,0,6.64,9.59,25.31,25.31,0,0,0,10.14,5.9,42.4,42.4,0,0,0,13.09,2,41.2,41.2,0,0,0,12.91-2A26,26,0,0,0,102,91.27a27.73,27.73,0,0,0,6.64-9.59,26,26,0,0,0,1.84-9.4h-8.3A30.35,30.35,0,0,1,100.68,81Z"></path><path class="cls-1" d="M167.71,66.94c0-8.12,0-14.41-.09-18.82a88,88,0,0,0-.43-9.11,28.65,28.65,0,0,0,5.92.15c-.27,2.86-.27,5.74-.38,8.62l-.43,10.36c0,4.59-.38,9.22-.57,13.81s-.18,8.79-1.75,13a21.39,21.39,0,0,1-4.77,7.73,19.83,19.83,0,0,1-7.6,4.82,30.36,30.36,0,0,1-10.36,1.63q-12.88,0-18.74-5.84c-6.2-6.18-5.59-15.31-5.63-23.36,0-10.31.16-20.68-.3-31,0,.7,8.12.47,8.16,0-.11,1.26-.22,2.92-.34,5s-.22,4.34-.34,6.92-.2,5.35-.26,8.33-.08,6.07-.08,9.28c0,2,0,4,.08,6.07a43.32,43.32,0,0,0,.6,6.1,25.11,25.11,0,0,0,1.68,5.68,13.79,13.79,0,0,0,3.31,4.71,15.07,15.07,0,0,0,5.41,3.19,24.23,24.23,0,0,0,8.09,1.15,20.46,20.46,0,0,0,8-1.36,15.33,15.33,0,0,0,5.28-3.62,16.44,16.44,0,0,0,3.23-5.16,28.76,28.76,0,0,0,1.67-6.1,48.69,48.69,0,0,0,.6-6.36Q167.71,69.61,167.71,66.94Z"></path><path class="cls-1" d="M201.49,43.47c-1.5,0-3.05,0-4.68.06s-3.27.07-4.91.16-3.21.2-4.73.31-2.87.25-4.08.43a10.34,10.34,0,0,0,.44-2.76,11.79,11.79,0,0,0-.44-2.66l11.09.31c3.61.09,7.31.12,11.09.12s7.47,0,11.09-.12L227.45,39a11.89,11.89,0,0,0-.43,2.75,10.11,10.11,0,0,0,.43,2.67c-1.21-.18-2.57-.32-4.09-.43s-3.09-.22-4.73-.31-3.26-.14-4.89-.16-3.2-.06-4.69-.06q-.26,8.87-.26,17.8V76.05q0,5.67.22,11.19c.14,3.67.3,8.81.48,12.35-1.33-.1-2.73-.16-4.22-.16s-2.9.06-4.21.16c.17-3.54.33-8.68.47-12.35s.22-7.41.22-11.19V61.27Q201.75,52.33,201.49,43.47Z"></path><path class="cls-1" d="M303.81,44q2.78-14.72,4.19-22.74c.93-5.34,1.45-9,1.56-11.1a34.49,34.49,0,0,0,7.1,1.53c-1,3.38-1.62,6.87-2.42,10.32l-2.88,12.41c-1,5.55-2.56,11-3.83,16.55s-2.22,10.57-5.08,15.36a26.36,26.36,0,0,1-7.52,8.24,24.37,24.37,0,0,1-10.28,4.1,37.74,37.74,0,0,1-12.88-.4Q256.21,75.33,250.47,67c-6.07-8.88-3.26-19.76-1.47-29.48C251.28,25,253.9,12.53,255.68,0c-.11.86,9.7,2.42,9.86,1.86-.43,1.49-.93,3.47-1.54,5.9S262.74,13,262,16s-1.45,6.42-2.21,10-1.48,7.31-2.21,11.18c-.45,2.37-.87,4.81-1.28,7.35a53.71,53.71,0,0,0-.67,7.51,31.2,31.2,0,0,0,.74,7.23,17.08,17.08,0,0,0,2.92,6.45,18.61,18.61,0,0,0,5.81,5.08,29.88,29.88,0,0,0,9.5,3.23,24.84,24.84,0,0,0,9.91.16,18.53,18.53,0,0,0,7.21-3.17,20,20,0,0,0,5.06-5.48,35.41,35.41,0,0,0,3.42-7,61.55,61.55,0,0,0,2.17-7.54Q303.21,47.23,303.81,44Z"></path><path class="cls-1" d="M266,138.57q2.7.51,5.66,1c2,.35,4,.66,6,.92s3.91.49,5.77.71,3.53.35,5,.41a12.52,12.52,0,0,0-1.15,3.23,15,15,0,0,0-.09,3.31q-6.81-1.49-13.31-2.89t-13.37-2.68c-4.56-.86-9-1.66-13.41-2.37l-13.46-2.16a14.87,14.87,0,0,0,1.15-3.23,13,13,0,0,0,.08-3.31q2.13.74,4.84,1.45c1.8.47,3.68,1,5.64,1.45s3.9.91,5.87,1.31,3.85.79,5.65,1.13q2.33-10.65,4.36-21.43l1-5.09q1.29-6.84,2.29-13.55t1.89-13.18q2.36.65,5.05,1.16c1.8.34,3.51.59,5.12.76-1,4.25-2,8.56-3,13s-1.94,8.89-2.8,13.46l-1,5.09Q267.7,127.82,266,138.57Z"></path><rect class="cls-1" x="61.6" y="63.32" width="98.58" height="2.77"></rect></g></g></svg>